<svg id="visual" viewBox="0 0 450 900" width="450" height="900" xmlns="http://www.w3.org/2000/svg" xmlns:xlink="http://www.w3.org/1999/xlink" version="1.1"><path d="M235 0L241.8 25C248.7 50 262.3 100 261.3 150C260.3 200 244.7 250 226.7 300C208.7 350 188.3 400 214 450C239.7 500 311.3 550 318.7 600C326 650 269 700 242.5 750C216 800 220 850 222 875L224 900L0 900L0 875C0 850 0 800 0 750C0 700 0 650 0 600C0 550 0 500 0 450C0 400 0 350 0 300C0 250 0 200 0 150C0 100 0 50 0 25L0 0Z" fill="#605BFF" stroke-linecap="round" stroke-linejoin="miter"></path></svg>