<svg id="visual" viewBox="0 0 900 450" width="900" height="450" xmlns="http://www.w3.org/2000/svg" xmlns:xlink="http://www.w3.org/1999/xlink" version="1.1"><path d="M0 233L25 239.8C50 246.7 100 260.3 150 259.3C200 258.3 250 242.7 300 224.7C350 206.7 400 186.3 450 212C500 237.7 550 309.3 600 316.7C650 324 700 267 750 240.5C800 214 850 218 875 220L900 222L900 0L875 0C850 0 800 0 750 0C700 0 650 0 600 0C550 0 500 0 450 0C400 0 350 0 300 0C250 0 200 0 150 0C100 0 50 0 25 0L0 0Z" fill="#605BFF" stroke-linecap="round" stroke-linejoin="miter"></path></svg>